# Blender v2.82 (sub 7) OBJ File: ''
# www.blender.org
o ì›í˜•
v -50.000000 0.000000 -0.000004
v -49.039265 0.000000 9.754510
v -46.193977 0.000000 19.134163
v -41.573483 0.000000 27.778509
v -35.355339 0.000000 35.355339
v -27.778509 0.000000 41.573483
v -19.134163 0.000000 46.193981
v -9.754504 0.000000 49.039265
v 0.000016 0.000000 50.000000
v 9.754537 0.000000 49.039261
v 19.134193 0.000000 46.193966
v 27.778536 0.000000 41.573463
v 35.355362 0.000000 35.355316
v 41.573502 0.000000 27.778482
v 46.193993 0.000000 19.134134
v 49.039272 0.000000 9.754473
v 50.000000 0.000000 -0.000048
v -50.000000 -0.000001 -0.000004
v -49.039265 3.336239 9.166242
v -46.193977 6.544270 17.980232
v -41.573483 9.500810 26.103262
v -35.355339 12.092238 33.223148
v -27.778509 14.218969 39.066296
v -19.134163 15.799273 43.408142
v -9.754504 16.772417 46.081837
v 0.000016 17.101007 46.984631
v 9.754537 16.772415 46.081829
v 19.134193 15.799268 43.408127
v 27.778536 14.218962 39.066280
v 35.355362 12.092231 33.223133
v 41.573502 9.500801 26.103233
v 46.193993 6.544259 17.980204
v 49.039272 3.336226 9.166206
v 50.000000 -0.000017 -0.000045
v -50.000000 -0.000002 -0.000003
v -49.039265 6.270079 7.472388
v -46.193977 12.299204 14.657619
v -41.573483 17.855682 21.279573
v -35.355339 22.725973 27.083757
v -27.778509 26.722919 31.847132
v -19.134163 29.692919 35.386639
v -9.754504 31.521833 37.566254
v 0.000016 32.139381 38.302219
v 9.754537 31.521830 37.566250
v 19.134193 29.692909 35.386631
v 27.778536 26.722908 31.847122
v 35.355362 22.725960 27.083742
v 41.573502 17.855665 21.279551
v 46.193993 12.299185 14.657596
v 49.039272 6.270054 7.472360
v 50.000000 -0.000031 -0.000037
v -50.000000 -0.000003 -0.000002
v -49.039265 8.447655 4.877255
v -46.193977 16.570673 9.567081
v -41.573483 24.056896 13.889255
v -35.355339 30.618620 17.677666
v -27.778509 36.003693 20.786739
v -19.134163 40.005157 23.096987
v -9.754504 42.469250 24.519630
v 0.000016 43.301273 24.999996
v 9.754537 42.469246 24.519629
v 19.134193 40.005146 23.096981
v 27.778536 36.003677 20.786732
v 35.355362 30.618603 17.677658
v 41.573502 24.056873 13.889241
v 46.193993 16.570646 9.567065
v 49.039272 8.447621 4.877236
v 50.000000 -0.000042 -0.000024
v -50.000000 -0.000004 -0.000001
v -49.039265 9.606318 1.693853
v -46.193977 18.843472 3.322613
v -41.573483 27.356493 4.823687
v -35.355339 34.818207 6.139387
v -27.778509 40.941887 7.219156
v -19.134163 45.492191 8.021498
v -9.754504 48.294247 8.515575
v 0.000016 49.240391 8.682405
v 9.754537 48.294243 8.515575
v 19.134193 45.492176 8.021496
v 27.778536 40.941872 7.219156
v 35.355362 34.818192 6.139385
v 41.573502 27.356466 4.823682
v 46.193993 18.843443 3.322606
v 49.039272 9.606281 1.693846
v 50.000000 -0.000048 -0.000008
v -50.000000 -0.000004 0.000001
v -49.039265 9.606318 -1.693853
v -46.193977 18.843472 -3.322613
v -41.573483 27.356491 -4.823689
v -35.355339 34.818207 -6.139393
v -27.778509 40.941887 -7.219163
v -19.134163 45.492191 -8.021503
v -9.754504 48.294243 -8.515581
v 0.000016 49.240387 -8.682415
v 9.754537 48.294239 -8.515581
v 19.134193 45.492172 -8.021501
v 27.778536 40.941872 -7.219159
v 35.355362 34.818192 -6.139388
v 41.573502 27.356466 -4.823685
v 46.193993 18.843443 -3.322609
v 49.039272 9.606281 -1.693847
v 50.000000 -0.000048 0.000008
v -50.000000 -0.000003 0.000002
v -49.039265 8.447655 -4.877256
v -46.193977 16.570673 -9.567081
v -41.573483 24.056894 -13.889256
v -35.355339 30.618616 -17.677671
v -27.778509 36.003689 -20.786745
v -19.134163 40.005157 -23.096994
v -9.754504 42.469242 -24.519634
v 0.000016 43.301266 -25.000006
v 9.754537 42.469238 -24.519632
v 19.134193 40.005146 -23.096985
v 27.778536 36.003677 -20.786736
v 35.355362 30.618603 -17.677662
v 41.573502 24.056873 -13.889244
v 46.193993 16.570644 -9.567068
v 49.039272 8.447621 -4.877237
v 50.000000 -0.000042 0.000024
v -50.000000 -0.000002 0.000003
v -49.039265 6.270079 -7.472390
v -46.193977 12.299204 -14.657619
v -41.573483 17.855682 -21.279575
v -35.355339 22.725969 -27.083761
v -27.778509 26.722914 -31.847137
v -19.134163 29.692919 -35.386646
v -9.754504 31.521824 -37.566257
v 0.000016 32.139374 -38.302227
v 9.754537 31.521820 -37.566254
v 19.134193 29.692905 -35.386631
v 27.778536 26.722908 -31.847126
v 35.355362 22.725958 -27.083748
v 41.573502 17.855665 -21.279556
v 46.193993 12.299182 -14.657598
v 49.039272 6.270054 -7.472361
v 50.000000 -0.000031 0.000037
v -50.000000 -0.000001 0.000004
v -49.039265 3.336239 -9.166244
v -46.193977 6.544270 -17.980232
v -41.573483 9.500809 -26.103264
v -35.355339 12.092235 -33.223148
v -27.778509 14.218961 -39.066296
v -19.134163 15.799269 -43.408146
v -9.754504 16.772409 -46.081837
v 0.000016 17.100998 -46.984634
v 9.754537 16.772408 -46.081829
v 19.134193 15.799263 -43.408127
v 27.778536 14.218962 -39.066280
v 35.355362 12.092227 -33.223133
v 41.573502 9.500800 -26.103237
v 46.193993 6.544256 -17.980206
v 49.039272 3.336226 -9.166207
v 50.000000 -0.000017 0.000045
v -50.000000 0.000000 0.000004
v -49.039265 -0.000001 -9.754513
v -46.193977 0.000000 -19.134163
v -41.573483 -0.000003 -27.778513
v -35.355339 -0.000003 -35.355335
v -27.778509 -0.000009 -41.573483
v -19.134163 -0.000004 -46.193981
v -9.754504 -0.000007 -49.039261
v 0.000016 -0.000012 -49.999996
v 9.754537 -0.000007 -49.039253
v 19.134193 -0.000003 -46.193962
v 27.778536 -0.000001 -41.573471
v 35.355362 -0.000006 -35.355316
v 41.573502 -0.000001 -27.778482
v 46.193993 -0.000004 -19.134134
v 49.039272 -0.000001 -9.754474
v 50.000000 0.000000 0.000048
vt 0.000000 0.000000
vt 0.000000 0.000000
vt 0.000000 0.000000
vt 0.000000 0.000000
vt 0.000000 0.000000
vt 0.000000 0.000000
vt 0.000000 0.000000
vt 0.000000 0.000000
vt 0.000000 0.000000
vt 0.000000 0.000000
vt 0.000000 0.000000
vt 0.000000 0.000000
vt 0.000000 0.000000
vt 0.000000 0.000000
vt 0.000000 0.000000
vt 0.000000 0.000000
vt 0.000000 0.000000
vt 0.000000 0.000000
vt 0.000000 0.000000
vt 0.000000 0.000000
vt 0.000000 0.000000
vt 0.000000 0.000000
vt 0.000000 0.000000
vt 0.000000 0.000000
vt 0.000000 0.000000
vt 0.000000 0.000000
vt 0.000000 0.000000
vt 0.000000 0.000000
vt 0.000000 0.000000
vt 0.000000 0.000000
vt 0.000000 0.000000
vt 0.000000 0.000000
vt 0.000000 0.000000
vt 0.000000 0.000000
vt 0.000000 0.000000
vt 0.000000 0.000000
vt 0.000000 0.000000
vt 0.000000 0.000000
vt 0.000000 0.000000
vt 0.000000 0.000000
vt 0.000000 0.000000
vt 0.000000 0.000000
vt 0.000000 0.000000
vt 0.000000 0.000000
vt 0.000000 0.000000
vt 0.000000 0.000000
vt 0.000000 0.000000
vt 0.000000 0.000000
vt 0.000000 0.000000
vt 0.000000 0.000000
vt 0.000000 0.000000
vt 0.000000 0.000000
vt 0.000000 0.000000
vt 0.000000 0.000000
vt 0.000000 0.000000
vt 0.000000 0.000000
vt 0.000000 0.000000
vt 0.000000 0.000000
vt 0.000000 0.000000
vt 0.000000 0.000000
vt 0.000000 0.000000
vt 0.000000 0.000000
vt 0.000000 0.000000
vt 0.000000 0.000000
vt 0.000000 0.000000
vt 0.000000 0.000000
vt 0.000000 0.000000
vt 0.000000 0.000000
vt 0.000000 0.000000
vt 0.000000 0.000000
vt 0.000000 0.000000
vt 0.000000 0.000000
vt 0.000000 0.000000
vt 0.000000 0.000000
vt 0.000000 0.000000
vt 0.000000 0.000000
vt 0.000000 0.000000
vt 0.000000 0.000000
vt 0.000000 0.000000
vt 0.000000 0.000000
vt 0.000000 0.000000
vt 0.000000 0.000000
vt 0.000000 0.000000
vt 0.000000 0.000000
vt 0.000000 0.000000
vt 0.000000 0.000000
vt 0.000000 0.000000
vt 0.000000 0.000000
vt 0.000000 0.000000
vt 0.000000 0.000000
vt 0.000000 0.000000
vt 0.000000 0.000000
vt 0.000000 0.000000
vt 0.000000 0.000000
vt 0.000000 0.000000
vt 0.000000 0.000000
vt 0.000000 0.000000
vt 0.000000 0.000000
vt 0.000000 0.000000
vt 0.000000 0.000000
vt 0.000000 0.000000
vt 0.000000 0.000000
vt 0.000000 0.000000
vt 0.000000 0.000000
vt 0.000000 0.000000
vt 0.000000 0.000000
vt 0.000000 0.000000
vt 0.000000 0.000000
vt 0.000000 0.000000
vt 0.000000 0.000000
vt 0.000000 0.000000
vt 0.000000 0.000000
vt 0.000000 0.000000
vt 0.000000 0.000000
vt 0.000000 0.000000
vt 0.000000 0.000000
vt 0.000000 0.000000
vt 0.000000 0.000000
vt 0.000000 0.000000
vt 0.000000 0.000000
vt 0.000000 0.000000
vt 0.000000 0.000000
vt 0.000000 0.000000
vt 0.000000 0.000000
vt 0.000000 0.000000
vt 0.000000 0.000000
vt 0.000000 0.000000
vt 0.000000 0.000000
vt 0.000000 0.000000
vt 0.000000 0.000000
vt 0.000000 0.000000
vt 0.000000 0.000000
vt 0.000000 0.000000
vt 0.000000 0.000000
vt 0.000000 0.000000
vt 0.000000 0.000000
vt 0.000000 0.000000
vt 0.000000 0.000000
vt 0.000000 0.000000
vt 0.000000 0.000000
vt 0.000000 0.000000
vt 0.000000 0.000000
vt 0.000000 0.000000
vt 0.000000 0.000000
vt 0.000000 0.000000
vt 0.000000 0.000000
vt 0.000000 0.000000
vt 0.000000 0.000000
vt 0.000000 0.000000
vt 0.000000 0.000000
vt 0.000000 0.000000
vt 0.000000 0.000000
vt 0.000000 0.000000
vt 0.000000 0.000000
vt 0.000000 0.000000
vt 0.000000 0.000000
vt 0.000000 0.000000
vt 0.000000 0.000000
vt 0.000000 0.000000
vt 0.000000 0.000000
vt 0.000000 0.000000
vt 0.000000 0.000000
vt 0.000000 0.000000
vt 0.000000 0.000000
vt 0.000000 0.000000
vt 0.000000 0.000000
vt 0.000000 0.000000
vt 0.000000 0.000000
vt 0.000000 0.000000
vt 0.000000 0.000000
vn -0.5447 -0.1456 -0.8259
vn -0.7017 -0.2437 -0.6695
vn -0.6962 -0.1246 -0.7069
vn 0.6962 -0.1246 -0.7069
vn 0.5506 -0.2855 -0.7844
vn 0.5447 -0.1456 -0.8259
vn -0.8264 -0.1925 -0.5290
vn -0.8224 -0.0988 -0.5602
vn 0.3789 -0.3165 -0.8696
vn 0.3739 -0.1610 -0.9133
vn -0.9200 -0.1340 -0.3682
vn -0.9178 -0.0689 -0.3909
vn 0.1930 -0.3356 -0.9220
vn 0.1902 -0.1705 -0.9668
vn -0.9786 -0.0703 -0.1931
vn -0.9780 -0.0362 -0.2054
vn 0.0000 -0.3420 -0.9397
vn 0.0000 -0.1736 -0.9848
vn 0.9780 -0.0362 -0.2054
vn -0.9774 0.1901 0.0927
vn 0.9786 -0.0703 -0.1931
vn 0.9952 -0.0043 0.0977
vn 0.9716 0.2190 0.0898
vn -0.1930 -0.3356 -0.9220
vn -0.1902 -0.1705 -0.9668
vn 0.9200 -0.1340 -0.3682
vn 0.9178 -0.0689 -0.3909
vn -0.3789 -0.3165 -0.8696
vn -0.3739 -0.1610 -0.9133
vn 0.8224 -0.0988 -0.5602
vn 0.8264 -0.1925 -0.5290
vn -0.5506 -0.2855 -0.7844
vn 0.7017 -0.2437 -0.6695
vn 0.8264 -0.3619 -0.4313
vn -0.5506 -0.5365 -0.6395
vn 0.7017 -0.4579 -0.5458
vn -0.7017 -0.4579 -0.5458
vn 0.5506 -0.5365 -0.6395
vn -0.8264 -0.3619 -0.4313
vn 0.3789 -0.5948 -0.7089
vn -0.9200 -0.2519 -0.3002
vn 0.1930 -0.6307 -0.7516
vn -0.9786 -0.1321 -0.1574
vn 0.0000 -0.6428 -0.7660
vn -0.2334 -0.9722 0.0198
vn 0.9786 -0.1321 -0.1574
vn 0.9827 0.1710 0.0706
vn -0.1930 -0.6307 -0.7516
vn 0.9200 -0.2519 -0.3002
vn -0.3789 -0.5948 -0.7089
vn 0.3789 -0.8014 -0.4627
vn 0.1930 -0.8497 -0.4906
vn -0.9786 -0.1780 -0.1028
vn 0.0000 -0.8660 -0.5000
vn -0.4093 -0.9119 0.0279
vn 0.9786 -0.1780 -0.1028
vn 0.9988 -0.0116 0.0475
vn -0.1930 -0.8497 -0.4906
vn 0.9200 -0.3394 -0.1959
vn -0.3789 -0.8014 -0.4627
vn 0.8264 -0.4876 -0.2815
vn -0.5506 -0.7229 -0.4174
vn 0.7017 -0.6170 -0.3562
vn -0.7017 -0.6170 -0.3562
vn 0.5506 -0.7229 -0.4174
vn -0.8264 -0.4876 -0.2815
vn -0.9200 -0.3394 -0.1959
vn -0.5506 -0.8221 -0.1449
vn 0.8264 -0.5544 -0.0978
vn 0.7017 -0.7016 -0.1237
vn -0.7017 -0.7016 -0.1237
vn 0.5506 -0.8221 -0.1449
vn -0.8264 -0.5544 -0.0978
vn 0.3789 -0.9114 -0.1607
vn -0.9200 -0.3859 -0.0680
vn 0.1930 -0.9663 -0.1704
vn -0.9786 -0.2024 -0.0357
vn 0.0000 -0.9848 -0.1736
vn -0.9375 -0.3473 0.0196
vn 0.9786 -0.2024 -0.0357
vn 0.9987 0.0469 0.0176
vn -0.1930 -0.9663 -0.1704
vn 0.9200 -0.3859 -0.0680
vn -0.3789 -0.9114 -0.1607
vn -0.9786 -0.2024 0.0357
vn 0.0000 -0.9848 0.1736
vn -0.9993 0.0159 -0.0345
vn 0.9786 -0.2024 0.0357
vn 0.9881 0.1527 -0.0177
vn -0.1930 -0.9663 0.1704
vn 0.9200 -0.3859 0.0680
vn -0.3789 -0.9114 0.1607
vn 0.8264 -0.5544 0.0978
vn -0.5506 -0.8221 0.1449
vn 0.7017 -0.7016 0.1237
vn -0.7017 -0.7016 0.1237
vn 0.5506 -0.8221 0.1449
vn -0.8264 -0.5544 0.0978
vn 0.3789 -0.9114 0.1607
vn -0.9200 -0.3859 0.0680
vn 0.1930 -0.9663 0.1704
vn -0.7017 -0.6170 0.3562
vn 0.5506 -0.7229 0.4174
vn -0.8264 -0.4876 0.2815
vn 0.3789 -0.8014 0.4627
vn -0.9200 -0.3394 0.1959
vn 0.1930 -0.8497 0.4906
vn -0.9786 -0.1780 0.1028
vn 0.0000 -0.8660 0.5000
vn -0.9900 -0.1346 -0.0414
vn 0.9786 -0.1780 0.1028
vn 0.9952 0.0844 -0.0497
vn -0.1930 -0.8497 0.4906
vn 0.9200 -0.3394 0.1959
vn -0.3789 -0.8014 0.4627
vn 0.8264 -0.4876 0.2815
vn -0.5506 -0.7229 0.4174
vn 0.7017 -0.6170 0.3562
vn -0.3601 0.9329 0.0008
vn 0.9786 -0.1321 0.1574
vn -0.9786 -0.1321 0.1574
vn 0.9971 -0.0062 -0.0751
vn -0.1930 -0.6307 0.7516
vn 0.9200 -0.2519 0.3002
vn -0.3789 -0.5948 0.7089
vn 0.8264 -0.3619 0.4313
vn -0.5506 -0.5365 0.6395
vn 0.7017 -0.4579 0.5458
vn -0.7017 -0.4579 0.5458
vn 0.5506 -0.5365 0.6395
vn -0.8264 -0.3619 0.4313
vn 0.3789 -0.5948 0.7089
vn -0.9200 -0.2519 0.3002
vn 0.1930 -0.6307 0.7516
vn 0.0000 -0.6428 0.7660
vn 0.7017 -0.2437 0.6695
vn 0.5506 -0.2855 0.7844
vn -0.8264 -0.1925 0.5290
vn 0.3789 -0.3165 0.8696
vn -0.9200 -0.1340 0.3682
vn 0.1930 -0.3356 0.9220
vn -0.9786 -0.0703 0.1931
vn 0.0000 -0.3420 0.9397
vn -0.1934 0.9810 -0.0157
vn 0.9786 -0.0703 0.1931
vn 0.9710 0.2216 -0.0897
vn -0.1930 -0.3356 0.9220
vn 0.9200 -0.1340 0.3682
vn -0.3789 -0.3165 0.8696
vn 0.8264 -0.1925 0.5290
vn -0.5506 -0.2855 0.7844
vn -0.7017 -0.2437 0.6695
vn -0.1902 -0.1705 0.9668
vn 0.9178 -0.0689 0.3909
vn -0.3739 -0.1610 0.9133
vn 0.8224 -0.0988 0.5602
vn -0.5447 -0.1456 0.8259
vn 0.6962 -0.1246 0.7069
vn -0.6962 -0.1246 0.7069
vn 0.5447 -0.1456 0.8259
vn -0.8224 -0.0988 0.5602
vn 0.3739 -0.1610 0.9133
vn -0.9178 -0.0689 0.3909
vn 0.1902 -0.1705 0.9668
vn -0.9780 -0.0362 0.2054
vn 0.0000 -0.1736 0.9848
vn -0.2712 0.9623 -0.0193
vn 0.9780 -0.0362 0.2054
vn 0.9312 0.3528 -0.0917
vn -0.4835 0.8740 0.0476
s 1
f 12/1/1 30/2/2 13/3/3
f 5/4/4 23/5/5 6/6/6
f 13/3/3 31/7/7 14/8/8
f 6/6/6 24/9/9 7/10/10
f 14/8/8 32/11/11 15/12/12
f 7/10/10 25/13/13 8/14/14
f 15/12/12 33/15/15 16/16/16
f 8/14/14 26/17/17 9/18/18
f 2/19/19 18/20/20 19/21/21
f 17/22/22 33/15/15 34/23/23
f 9/18/18 27/24/24 10/25/25
f 2/19/19 20/26/26 3/27/27
f 10/25/25 28/28/28 11/29/29
f 4/30/30 20/26/26 21/31/31
f 11/29/29 29/32/32 12/1/1
f 4/30/30 22/33/33 5/4/4
f 20/26/26 38/34/34 21/31/31
f 28/28/28 46/35/35 29/32/32
f 22/33/33 38/34/34 39/36/36
f 30/2/2 46/35/35 47/37/37
f 22/33/33 40/38/38 23/5/5
f 30/2/2 48/39/39 31/7/7
f 23/5/5 41/40/40 24/9/9
f 31/7/7 49/41/41 32/11/11
f 25/13/13 41/40/40 42/42/42
f 32/11/11 50/43/43 33/15/15
f 26/17/17 42/42/42 43/44/44
f 19/21/21 35/45/45 36/46/46
f 34/23/23 50/43/43 51/47/47
f 26/17/17 44/48/48 27/24/24
f 19/21/21 37/49/49 20/26/26
f 27/24/24 45/50/50 28/28/28
f 42/42/42 58/51/51 59/52/52
f 49/41/41 67/53/53 50/43/43
f 43/44/44 59/52/52 60/54/54
f 36/46/46 52/55/55 53/56/56
f 51/47/47 67/53/53 68/57/57
f 43/44/44 61/58/58 44/48/48
f 37/49/49 53/56/56 54/59/59
f 44/48/48 62/60/60 45/50/50
f 37/49/49 55/61/61 38/34/34
f 46/35/35 62/60/60 63/62/62
f 38/34/34 56/63/63 39/36/36
f 46/35/35 64/64/64 47/37/37
f 39/36/36 57/65/65 40/38/38
f 48/39/39 64/64/64 65/66/66
f 40/38/38 58/51/51 41/40/40
f 48/39/39 66/67/67 49/41/41
f 62/60/60 80/68/68 63/62/62
f 56/63/63 72/69/69 73/70/70
f 63/62/62 81/71/71 64/64/64
f 56/63/63 74/72/72 57/65/65
f 64/64/64 82/73/73 65/66/66
f 57/65/65 75/74/74 58/51/51
f 65/66/66 83/75/75 66/67/67
f 58/51/51 76/76/76 59/52/52
f 66/67/67 84/77/77 67/53/53
f 59/52/52 77/78/78 60/54/54
f 53/56/56 69/79/79 70/80/80
f 68/57/57 84/77/77 85/81/81
f 60/54/54 78/82/82 61/58/58
f 53/56/56 71/83/83 54/59/59
f 61/58/58 79/84/84 62/60/60
f 54/59/59 72/69/69 55/61/61
f 83/75/75 101/85/85 84/77/77
f 76/76/76 94/86/86 77/78/78
f 70/80/80 86/87/87 87/88/88
f 85/81/81 101/85/85 102/89/89
f 77/78/78 95/90/90 78/82/82
f 70/80/80 88/91/91 71/83/83
f 78/82/82 96/92/92 79/84/84
f 72/69/69 88/91/91 89/93/93
f 80/68/68 96/92/92 97/94/94
f 73/70/70 89/93/93 90/95/95
f 81/71/71 97/94/94 98/96/96
f 73/70/70 91/97/97 74/72/72
f 82/73/73 98/96/96 99/98/98
f 74/72/72 92/99/99 75/74/74
f 82/73/73 100/100/100 83/75/75
f 75/74/74 93/101/101 76/76/76
f 97/94/94 115/102/102 98/96/96
f 90/95/95 108/103/103 91/97/97
f 99/98/98 115/102/102 116/104/104
f 92/99/99 108/103/103 109/105/105
f 100/100/100 116/104/104 117/106/106
f 92/99/99 110/107/107 93/101/101
f 100/100/100 118/108/108 101/85/85
f 94/86/86 110/107/107 111/109/109
f 87/88/88 103/110/110 104/111/111
f 102/89/89 118/108/108 119/112/112
f 94/86/86 112/113/113 95/90/90
f 88/91/91 104/111/111 105/114/114
f 95/90/90 113/115/115 96/92/92
f 89/93/93 105/114/114 106/116/116
f 96/92/92 114/117/117 97/94/94
f 90/95/95 106/116/116 107/118/118
f 104/111/111 120/119/119 121/120/120
f 119/112/112 135/121/121 136/122/122
f 111/109/109 129/123/123 112/113/113
f 105/114/114 121/120/120 122/124/124
f 112/113/113 130/125/125 113/115/115
f 106/116/116 122/124/124 123/126/126
f 113/115/115 131/127/127 114/117/117
f 107/118/118 123/126/126 124/128/128
f 115/102/102 131/127/127 132/129/129
f 108/103/103 124/128/128 125/130/130
f 115/102/102 133/131/131 116/104/104
f 108/103/103 126/132/132 109/105/105
f 117/106/106 133/131/131 134/133/133
f 110/107/107 126/132/132 127/134/134
f 118/108/108 134/133/133 135/121/121
f 111/109/109 127/134/134 128/135/135
f 125/130/130 141/136/136 142/137/137
f 132/129/129 150/138/138 133/131/131
f 125/130/130 143/139/139 126/132/132
f 134/133/133 150/138/138 151/140/140
f 127/134/134 143/139/139 144/141/141
f 134/133/133 152/142/142 135/121/121
f 127/134/134 145/143/143 128/135/135
f 121/120/120 137/144/144 138/145/145
f 136/122/122 152/142/142 153/146/146
f 128/135/135 146/147/147 129/123/123
f 121/120/120 139/148/148 122/124/124
f 129/123/123 147/149/149 130/125/125
f 122/124/124 140/150/150 123/126/126
f 131/127/127 147/149/149 148/151/151
f 123/126/126 141/136/136 124/128/128
f 132/129/129 148/151/151 149/152/152
f 145/143/143 163/153/153 146/147/147
f 138/145/145 156/154/154 139/148/148
f 146/147/147 164/155/155 147/149/149
f 140/150/150 156/154/154 157/156/156
f 147/149/149 165/157/157 148/151/151
f 140/150/150 158/158/158 141/136/136
f 149/152/152 165/157/157 166/159/159
f 142/137/137 158/158/158 159/160/160
f 149/152/152 167/161/161 150/138/138
f 142/137/137 160/162/162 143/139/139
f 151/140/140 167/161/161 168/163/163
f 143/139/139 161/164/164 144/141/141
f 151/140/140 169/165/165 152/142/142
f 145/143/143 161/164/164 162/166/166
f 138/145/145 154/167/167 155/168/168
f 153/146/146 169/165/165 170/169/169
f 12/1/1 29/32/32 30/2/2
f 5/4/4 22/33/33 23/5/5
f 13/3/3 30/2/2 31/7/7
f 6/6/6 23/5/5 24/9/9
f 14/8/8 31/7/7 32/11/11
f 7/10/10 24/9/9 25/13/13
f 15/12/12 32/11/11 33/15/15
f 8/14/14 25/13/13 26/17/17
f 2/19/19 1/170/170 18/20/20
f 17/22/22 16/16/16 33/15/15
f 9/18/18 26/17/17 27/24/24
f 2/19/19 19/21/21 20/26/26
f 10/25/25 27/24/24 28/28/28
f 4/30/30 3/27/27 20/26/26
f 11/29/29 28/28/28 29/32/32
f 4/30/30 21/31/31 22/33/33
f 20/26/26 37/49/49 38/34/34
f 28/28/28 45/50/50 46/35/35
f 22/33/33 21/31/31 38/34/34
f 30/2/2 29/32/32 46/35/35
f 22/33/33 39/36/36 40/38/38
f 30/2/2 47/37/37 48/39/39
f 23/5/5 40/38/38 41/40/40
f 31/7/7 48/39/39 49/41/41
f 25/13/13 24/9/9 41/40/40
f 32/11/11 49/41/41 50/43/43
f 26/17/17 25/13/13 42/42/42
f 19/21/21 18/20/20 35/45/45
f 34/23/23 33/15/15 50/43/43
f 26/17/17 43/44/44 44/48/48
f 19/21/21 36/46/46 37/49/49
f 27/24/24 44/48/48 45/50/50
f 42/42/42 41/40/40 58/51/51
f 49/41/41 66/67/67 67/53/53
f 43/44/44 42/42/42 59/52/52
f 36/46/46 35/45/45 52/55/55
f 51/47/47 50/43/43 67/53/53
f 43/44/44 60/54/54 61/58/58
f 37/49/49 36/46/46 53/56/56
f 44/48/48 61/58/58 62/60/60
f 37/49/49 54/59/59 55/61/61
f 46/35/35 45/50/50 62/60/60
f 38/34/34 55/61/61 56/63/63
f 46/35/35 63/62/62 64/64/64
f 39/36/36 56/63/63 57/65/65
f 48/39/39 47/37/37 64/64/64
f 40/38/38 57/65/65 58/51/51
f 48/39/39 65/66/66 66/67/67
f 62/60/60 79/84/84 80/68/68
f 56/63/63 55/61/61 72/69/69
f 63/62/62 80/68/68 81/71/71
f 56/63/63 73/70/70 74/72/72
f 64/64/64 81/71/71 82/73/73
f 57/65/65 74/72/72 75/74/74
f 65/66/66 82/73/73 83/75/75
f 58/51/51 75/74/74 76/76/76
f 66/67/67 83/75/75 84/77/77
f 59/52/52 76/76/76 77/78/78
f 53/56/56 52/55/55 69/79/79
f 68/57/57 67/53/53 84/77/77
f 60/54/54 77/78/78 78/82/82
f 53/56/56 70/80/80 71/83/83
f 61/58/58 78/82/82 79/84/84
f 54/59/59 71/83/83 72/69/69
f 83/75/75 100/100/100 101/85/85
f 76/76/76 93/101/101 94/86/86
f 70/80/80 69/79/79 86/87/87
f 85/81/81 84/77/77 101/85/85
f 77/78/78 94/86/86 95/90/90
f 70/80/80 87/88/88 88/91/91
f 78/82/82 95/90/90 96/92/92
f 72/69/69 71/83/83 88/91/91
f 80/68/68 79/84/84 96/92/92
f 73/70/70 72/69/69 89/93/93
f 81/71/71 80/68/68 97/94/94
f 73/70/70 90/95/95 91/97/97
f 82/73/73 81/71/71 98/96/96
f 74/72/72 91/97/97 92/99/99
f 82/73/73 99/98/98 100/100/100
f 75/74/74 92/99/99 93/101/101
f 97/94/94 114/117/117 115/102/102
f 90/95/95 107/118/118 108/103/103
f 99/98/98 98/96/96 115/102/102
f 92/99/99 91/97/97 108/103/103
f 100/100/100 99/98/98 116/104/104
f 92/99/99 109/105/105 110/107/107
f 100/100/100 117/106/106 118/108/108
f 94/86/86 93/101/101 110/107/107
f 87/88/88 86/87/87 103/110/110
f 102/89/89 101/85/85 118/108/108
f 94/86/86 111/109/109 112/113/113
f 88/91/91 87/88/88 104/111/111
f 95/90/90 112/113/113 113/115/115
f 89/93/93 88/91/91 105/114/114
f 96/92/92 113/115/115 114/117/117
f 90/95/95 89/93/93 106/116/116
f 104/111/111 103/110/110 120/119/119
f 119/112/112 118/108/108 135/121/121
f 111/109/109 128/135/135 129/123/123
f 105/114/114 104/111/111 121/120/120
f 112/113/113 129/123/123 130/125/125
f 106/116/116 105/114/114 122/124/124
f 113/115/115 130/125/125 131/127/127
f 107/118/118 106/116/116 123/126/126
f 115/102/102 114/117/117 131/127/127
f 108/103/103 107/118/118 124/128/128
f 115/102/102 132/129/129 133/131/131
f 108/103/103 125/130/130 126/132/132
f 117/106/106 116/104/104 133/131/131
f 110/107/107 109/105/105 126/132/132
f 118/108/108 117/106/106 134/133/133
f 111/109/109 110/107/107 127/134/134
f 125/130/130 124/128/128 141/136/136
f 132/129/129 149/152/152 150/138/138
f 125/130/130 142/137/137 143/139/139
f 134/133/133 133/131/131 150/138/138
f 127/134/134 126/132/132 143/139/139
f 134/133/133 151/140/140 152/142/142
f 127/134/134 144/141/141 145/143/143
f 121/120/120 120/119/119 137/144/144
f 136/122/122 135/121/121 152/142/142
f 128/135/135 145/143/143 146/147/147
f 121/120/120 138/145/145 139/148/148
f 129/123/123 146/147/147 147/149/149
f 122/124/124 139/148/148 140/150/150
f 131/127/127 130/125/125 147/149/149
f 123/126/126 140/150/150 141/136/136
f 132/129/129 131/127/127 148/151/151
f 145/143/143 162/166/166 163/153/153
f 138/145/145 155/168/168 156/154/154
f 146/147/147 163/153/153 164/155/155
f 140/150/150 139/148/148 156/154/154
f 147/149/149 164/155/155 165/157/157
f 140/150/150 157/156/156 158/158/158
f 149/152/152 148/151/151 165/157/157
f 142/137/137 141/136/136 158/158/158
f 149/152/152 166/159/159 167/161/161
f 142/137/137 159/160/160 160/162/162
f 151/140/140 150/138/138 167/161/161
f 143/139/139 160/162/162 161/164/164
f 151/140/140 168/163/163 169/165/165
f 145/143/143 144/141/141 161/164/164
f 138/145/145 137/144/144 154/167/167
f 153/146/146 152/142/142 169/165/165
